<svg width="14" height="14" viewBox="0 0 14 14" fill="none" xmlns="http://www.w3.org/2000/svg">
<path d="M13.0317 5.4425L11.865 4.85916C11.6492 4.75416 11.3808 4.83583 11.2758 5.05166C11.165 5.27333 11.2525 5.53583 11.4683 5.64083L12.3958 6.10166V8.89583L10.2083 8.90166V2.91666C10.2083 1.75 9.42666 1.16666 8.45832 1.16666H3.79166C2.82332 1.16666 2.04166 1.75 2.04166 2.91666V12.3958H1.16666C0.92749 12.3958 0.729156 12.5942 0.729156 12.8333C0.729156 13.0725 0.92749 13.2708 1.16666 13.2708H11.0833C11.3225 13.2708 11.5208 13.0725 11.5208 12.8333C11.5208 12.5942 11.3225 12.3958 11.0833 12.3958H10.2083V9.77666L12.8333 9.77083C13.0783 9.77083 13.2708 9.5725 13.2708 9.33333V5.83333C13.2708 5.67 13.1775 5.51833 13.0317 5.4425ZM3.49999 4.01916C3.49999 3.20833 3.99582 2.91666 4.60249 2.91666H7.65332C8.25416 2.91666 8.74999 3.20833 8.74999 4.01916V4.73666C8.74999 5.54166 8.25416 5.83333 7.64749 5.83333H4.60249C3.99582 5.83333 3.49999 5.54166 3.49999 4.73083V4.01916ZM3.79166 7.14583H5.54166C5.78082 7.14583 5.97916 7.34416 5.97916 7.58333C5.97916 7.8225 5.78082 8.02083 5.54166 8.02083H3.79166C3.55249 8.02083 3.35416 7.8225 3.35416 7.58333C3.35416 7.34416 3.55249 7.14583 3.79166 7.14583Z" fill="#90A3BF"/>
</svg>
