<svg width="99" height="20" viewBox="0 0 99 20" fill="none" xmlns="http://www.w3.org/2000/svg">
<path d="M0.728 19V1.12H3.848L10.544 10.216H9.056L15.608 1.12H18.728V19H15.44V4.84L16.712 5.152L9.92 14.2H9.536L2.912 5.152L3.992 4.84V19H0.728ZM30.2379 19.288C28.9259 19.288 27.7019 19.056 26.5659 18.592C25.4299 18.128 24.4379 17.48 23.5899 16.648C22.7419 15.816 22.0779 14.84 21.5979 13.72C21.1339 12.584 20.9019 11.36 20.9019 10.048C20.9019 8.72 21.1339 7.496 21.5979 6.376C22.0619 5.256 22.7179 4.28 23.5659 3.448C24.4139 2.616 25.4059 1.976 26.5419 1.528C27.6779 1.064 28.9099 0.831999 30.2379 0.831999C31.5659 0.831999 32.7979 1.064 33.9339 1.528C35.0699 1.992 36.0619 2.64 36.9099 3.472C37.7579 4.288 38.4139 5.256 38.8779 6.376C39.3579 7.496 39.5979 8.72 39.5979 10.048C39.5979 11.36 39.3579 12.584 38.8779 13.72C38.3979 14.84 37.7339 15.816 36.8859 16.648C36.0379 17.48 35.0459 18.128 33.9099 18.592C32.7899 19.056 31.5659 19.288 30.2379 19.288ZM30.2379 16.312C31.1179 16.312 31.9259 16.16 32.6619 15.856C33.3979 15.536 34.0379 15.096 34.5819 14.536C35.1419 13.976 35.5659 13.312 35.8539 12.544C36.1579 11.776 36.3099 10.944 36.3099 10.048C36.3099 9.152 36.1579 8.328 35.8539 7.576C35.5659 6.808 35.1419 6.144 34.5819 5.584C34.0379 5.008 33.3979 4.568 32.6619 4.264C31.9259 3.96 31.1179 3.808 30.2379 3.808C29.3739 3.808 28.5739 3.96 27.8379 4.264C27.1019 4.568 26.4539 5.008 25.8939 5.584C25.3499 6.144 24.9259 6.808 24.6219 7.576C24.3179 8.328 24.1659 9.152 24.1659 10.048C24.1659 10.944 24.3179 11.776 24.6219 12.544C24.9259 13.312 25.3499 13.976 25.8939 14.536C26.4539 15.096 27.1019 15.536 27.8379 15.856C28.5739 16.16 29.3739 16.312 30.2379 16.312ZM41.7802 19V1.12H48.4282C49.6442 1.12 50.7162 1.344 51.6442 1.792C52.5882 2.224 53.3242 2.864 53.8522 3.712C54.3802 4.544 54.6442 5.56 54.6442 6.76C54.6442 7.992 54.3482 9.04 53.7562 9.904C53.1802 10.768 52.3962 11.408 51.4042 11.824L55.5082 19H51.8122L47.4202 11.152L49.5322 12.4H45.0442V19H41.7802ZM45.0442 9.52H48.4762C49.0682 9.52 49.5802 9.408 50.0122 9.184C50.4442 8.944 50.7802 8.616 51.0202 8.2C51.2602 7.784 51.3802 7.304 51.3802 6.76C51.3802 6.2 51.2602 5.72 51.0202 5.32C50.7802 4.904 50.4442 4.584 50.0122 4.36C49.5802 4.12 49.0682 4 48.4762 4H45.0442V9.52ZM56.9274 19V1.12H68.8074V4H60.1914V8.584H68.3274V11.464H60.1914V16.12H68.8074V19H56.9274ZM70.4808 19V1.12H73.0248L82.8648 14.368L81.5448 14.632V1.12H84.8088V19H82.2408L72.5448 5.656L73.7448 5.392V19H70.4808ZM90.7179 19V4H86.0859V1.12H98.5659V4H94.0059V19H90.7179Z" fill="#3563E9"/>
</svg>
